<svg width="33" height="32" viewBox="0 0 33 32" fill="none" xmlns="http://www.w3.org/2000/svg">
<path d="M31.4196 10.9616C33.3336 9.0476 32.4608 6.81208 31.4196 5.72494L26.8258 1.1314C24.8964 -0.782581 22.6761 0.0901921 21.5889 1.1314L18.9857 3.74971H15.0198C12.1104 3.74971 10.426 5.28089 9.56848 7.04175L2.76968 13.8402V19.9649L1.68248 21.0367C-0.231597 22.966 0.641222 25.1862 1.68248 26.2734L6.27626 30.8669C7.10314 31.6938 7.99128 32 8.83347 32C9.92067 32 10.916 31.4641 11.5132 30.8669L15.6476 26.7174H21.1448C23.748 26.7174 25.0648 25.0944 25.5395 23.5019C27.2699 23.0426 28.2192 21.7258 28.6021 20.4396C30.9755 19.8271 31.8636 17.5763 31.8636 15.9992V11.4056H30.9602L31.4196 10.9616ZM28.8011 15.9992C28.8011 16.6882 28.5102 17.5303 27.2699 17.5303H25.7386V19.0615C25.7386 19.7506 25.4477 20.5927 24.2073 20.5927H22.6761V22.1239C22.6761 22.8129 22.3851 23.6551 21.1448 23.6551H14.3919L9.36941 28.6773C8.89472 29.1214 8.61909 28.8611 8.45065 28.6927L3.87218 24.1297C3.42812 23.6551 3.68843 23.3795 3.85687 23.211L5.8322 21.2205V15.0958L8.89472 12.0334V14.468C8.89472 16.3207 10.1197 19.0615 13.4885 19.0615C16.8573 19.0615 18.0823 16.3207 18.0823 14.468H28.8011V15.9992ZM29.2452 8.7873L26.642 11.4056H15.0198V14.468C15.0198 15.157 14.7288 15.9992 13.4885 15.9992C12.2482 15.9992 11.9572 15.157 11.9572 14.468V9.87444C11.9572 9.17009 12.2176 6.81208 15.0198 6.81208H20.2414L23.7326 3.32098C24.2073 2.87694 24.483 3.13724 24.6514 3.30567L29.2299 7.86859C29.6739 8.34326 29.4136 8.61887 29.2452 8.7873Z" fill="white"/>
</svg>
